<svg width="16" height="16" xmlns="http://www.w3.org/2000/svg">
 <g>
  <title>Layer 1</title>
  <path fill="#ffffff" id="svg_1" d="m12.872,1.562c0.195001,0.194 0.195001,0.513 0,0.707l-3.889,3.891c-0.193,0.194 -0.193,0.513 0,0.708l3.887,3.892c0.195,0.194 0.195,0.513 0,0.707l-1.415999,1.413c-0.193001,0.194 -0.512,0.194 -0.707001,0l-3.885,-3.892c-0.194,-0.194 -0.513,-0.194 -0.707,0l-3.889,3.889c-0.194,0.195 -0.513,0.195 -0.707,0l-1.414,-1.415999c-0.194,-0.193001 -0.194,-0.512 0,-0.707001l3.89,-3.889c0.194,-0.194 0.194,-0.513 0,-0.708l-3.887,-3.891c-0.194,-0.195 -0.194,-0.513 0,-0.707l1.415,-1.414c0.194,-0.194 0.513,-0.194 0.707,0l3.885,3.891c0.194,0.195 0.513,0.195 0.707,0.001l3.888,-3.89c0.195,-0.193 0.514,-0.193 0.707,0l1.415,1.415z"/>
 </g>
</svg>